<?xml version="1.0" encoding="UTF-8"?><svg id="c" xmlns="http://www.w3.org/2000/svg" viewBox="0 0 180 180"><defs><style>.d{fill-rule:evenodd;}</style></defs><polygon class="d" points="148.6 93.96 124.39 52.06 148.6 52.06 140.04 66.87 152.05 87.98 160.7 73.01 172.8 52.06 160.7 31.08 88.12 31.08 148.81 136.2 172.98 136.2 148.6 93.96"/><path class="d" d="M112.29,114.91c-16.14-27.93-32.24-55.86-48.37-83.79l-12.1,20.95,48.37,83.79h24.2l8.67-15.02-11.97-21.18-8.81,15.25Z"/><path class="d" d="M63.77,114.91C47.64,86.98,31.54,59.05,15.4,31.11L3.3,52.06l48.37,83.79h24.2l8.67-15.02-11.97-21.18-8.81,15.25Z"/><path d="M109.87,154.14v-.02c0-2.28,1.71-4.14,4.13-4.14,1.24,0,2.05.37,2.75.9.15.11.27.31.27.56,0,.39-.31.69-.7.69-.19,0-.33-.07-.42-.14-.55-.45-1.14-.72-1.91-.72-1.52,0-2.64,1.26-2.64,2.83v.02c0,1.57,1.11,2.84,2.64,2.84.85,0,1.42-.27,2-.77.1-.09.25-.16.42-.16.35,0,.66.3.66.65,0,.22-.1.39-.23.5-.76.66-1.61,1.08-2.91,1.08-2.34,0-4.08-1.82-4.08-4.12Z"/><path d="M107.56,157.28l-3.01-6.71c-.16-.36-.44-.58-.84-.58h-.07c-.4,0-.69.22-.86.58l-3.01,6.71c-.06.12-.09.22-.09.32,0,.37.29.66.66.66.3,0,.54-.16.66-.45l.68-1.56.54-1.26,1.42-3.27,1.42,3.27.54,1.26.66,1.51c.13.3.36.5.69.5.38,0,.67-.3.67-.68,0-.09-.02-.2-.08-.3Z"/><path d="M63.95,150.98l-2.93,6.69c-.16.36-.43.58-.82.58h-.07c-.39,0-.68-.22-.83-.58l-2.93-6.69c-.06-.12-.09-.22-.09-.32,0-.37.28-.66.64-.66.29,0,.53.16.64.45l.67,1.56.53,1.26,1.39,3.26,1.39-3.26.53-1.26.64-1.51c.12-.3.35-.5.68-.5.37,0,.65.3.65.68,0,.09-.02.2-.08.3Z"/><path d="M57.49,150.98l-2.93,6.69c-.16.36-.43.58-.82.58h-.07c-.39,0-.68-.22-.83-.58l-2.93-6.69c-.06-.12-.09-.22-.09-.32,0-.37.28-.66.64-.66.29,0,.53.16.64.45l.67,1.56.53,1.26,1.39,3.26,1.39-3.26.53-1.26.64-1.51c.12-.3.35-.5.68-.5.37,0,.65.3.65.68,0,.09-.02.2-.08.3Z"/><path d="M125.74,151.36c.34,0,.63-.27.64-.61.02-.37-.31-.67-.67-.67h-4.96c-.35,0-.64.29-.64.64h0c0,.35.29.64.64.64h5Z"/><path d="M125.19,154.77c.36,0,.67-.3.66-.66-.01-.35-.3-.63-.64-.63h-4.47c-.35,0-.64.29-.64.64h0c0,.35.29.64.64.64h4.45Z"/><path d="M125.77,156.96h-5.02c-.35,0-.64.29-.64.64h0c0,.35.29.64.64.64h5.05c.34,0,.63-.27.64-.61.02-.37-.31-.67-.67-.67Z"/><path d="M86.47,151.36c.34,0,.63-.27.64-.61.02-.37-.31-.67-.67-.67h-4.96c-.35,0-.64.29-.64.64h0c0,.35.29.64.64.64h5Z"/><path d="M85.92,154.77c.36,0,.67-.3.66-.66-.01-.35-.3-.63-.64-.63h-4.47c-.35,0-.64.29-.64.64h0c0,.35.29.64.64.64h4.45Z"/><path d="M86.5,156.96h-5.02c-.35,0-.64.29-.64.64h0c0,.35.29.64.64.64h5.05c.34,0,.63-.27.64-.61.02-.37-.31-.67-.67-.67Z"/><path d="M72.08,157.26c-.16-.11-.27-.31-.27-.54,0-.37.3-.65.66-.65.19,0,.32.06.41.13.66.53,1.37.82,2.24.82s1.42-.41,1.42-1.01v-.02c0-.57-.32-.88-1.81-1.22-1.71-.41-2.67-.92-2.67-2.39v-.02c0-1.37,1.14-2.32,2.74-2.32,1.01,0,1.82.26,2.54.74.16.09.31.29.31.56,0,.37-.3.65-.66.65-.14,0-.25-.03-.37-.1-.62-.4-1.21-.61-1.84-.61-.82,0-1.3.42-1.3.95v.02c0,.62.37.89,1.91,1.26,1.69.41,2.56,1.02,2.56,2.35v.02c0,1.5-1.18,2.39-2.86,2.39-1.09,0-2.12-.34-3.01-1.01Z"/><path d="M66.72,157.28v-6.3c0-.33.07-.57.22-.74s.34-.25.58-.25.44.08.59.24.23.41.23.74v6.3c0,.33-.08.58-.23.74s-.35.25-.59.25-.42-.08-.58-.25-.23-.41-.23-.74Z"/><path d="M97.37,151.5c-.12-.31-.3-.56-.54-.77s-.52-.36-.85-.45c-.33-.09-.8-.14-1.42-.14h-2.67c-.33,0-.61.27-.61.61s.28.61.61.61h1.1s1.18,0,1.18,0c.72,0,1.2.12,1.43.35.21.22.31.51.31.86,0,.29-.07.53-.2.71s-.33.31-.59.39-.58.12-.96.12h-2.71v3.49c0,.32.07.56.22.73s.25.24.49.23c.08,0,.32,0,.47-.16s.24-.26.24-.81v-2.26h1.67c.99,0,1.74-.21,2.24-.63s.75-1.04.75-1.85c0-.38-.06-.72-.19-1.03Z"/></svg>